<svg width="713" height="685" viewBox="0 0 713 685" fill="none" xmlns="http://www.w3.org/2000/svg">
<g clip-path="url(#clip0_5_24)">
<path d="M22.1494 210.691H707.726V680.929H22.1494V210.691Z" fill="#FCE3C3"/>
<path d="M707.726 680.929H10.5474V227.994H707.726V680.929ZM30.5479 661.641H687.726V247.282H30.5479V661.641Z" fill="#300604"/>
<path d="M710.89 685H6.32843V224.941H710.891V685H710.89ZM13.5391 678.045H703.68V231.895H13.5391V678.045ZM690.884 665.705H26.335V244.235H690.885L690.884 665.705ZM33.5456 658.751H683.674V251.19H33.5456V658.751Z" fill="#300604"/>
<path d="M20.0399 100.765H697.179V237.155H20.0399V100.765Z" fill="#300604"/>
<path d="M701.397 241.226H16.8757V96.6939H701.398V241.226H701.397ZM24.086 234.251H694.188V103.668H24.086V234.251Z" fill="#300604"/>
<path d="M707.726 247.333H10.5474V90.5869H707.726V247.333ZM30.5479 228.002H687.726V109.918H30.5479V228.002Z" fill="#300604"/>
<path d="M710.89 250.386H6.32843V87.5334H710.891V250.386H710.89ZM13.5391 243.456H703.68V94.4642H13.5391V243.456ZM690.884 231.157H26.335V106.762H690.885L690.884 231.157ZM33.5456 224.227H683.674V113.693H33.5456V224.227Z" fill="#300604"/>
<path d="M527.367 17.3031H592.76V180.156H527.367V17.3031Z" fill="#ED8F27"/>
<path d="M602.253 189.316H517.874V8.14264H602.253V189.316ZM537.654 170.015H582.473V27.4445H537.654V170.015Z" fill="#300604"/>
<path d="M124.459 17.3031H189.852V180.156H124.459V17.3031Z" fill="#ED8F27"/>
<path d="M200.399 189.316H114.966V8.14264H200.399V189.316ZM134.993 170.015H180.372V27.4445H134.993V170.015Z" fill="#300604"/>
<path d="M543.188 294.153H612.8V360.312H543.188V294.153Z" fill="#B12800"/>
<path d="M544.078 421.355H612.8V487.567H544.078V421.355ZM544.078 548.557H612.8V614.77H544.078V548.557ZM397.635 294.153H466.357V360.365H397.635V294.153Z" fill="#228E9D"/>
<path d="M397.635 421.382H466.192V487.541H397.635V421.382Z" fill="#B12800"/>
<path d="M397.471 548.557H466.192V614.77H397.471V548.557ZM251.027 294.153H319.749V360.365H251.027V294.153Z" fill="#228E9D"/>
<path d="M251.027 421.382H319.584V487.541H251.027V421.382Z" fill="#B12800"/>
<path d="M251.199 548.566H319.584V614.77H251.199V548.566ZM105.473 421.382H173.859V487.585H105.473V421.382Z" fill="#228E9D"/>
<path d="M105.473 548.611H174.031V614.77H105.473V548.611Z" fill="#B12800"/>
</g>
<defs>
<clipPath id="clip0_5_24">
<rect width="713" height="685" fill="white"/>
</clipPath>
</defs>
</svg>
