<svg width="696" height="800" viewBox="0 0 696 800" fill="none" xmlns="http://www.w3.org/2000/svg">
<path d="M695.352 773.034C695.352 788.443 682.51 800 668.385 800H28.8989C14.7737 800 1.93262 787.159 1.93262 773.034V133.547C1.93262 119.422 14.7737 106.581 28.8989 106.581H667.101C682.51 106.581 695.352 119.422 695.352 133.547V773.034Z" fill="#B8BDC1"/>
<path d="M695.352 760.193C695.352 775.602 682.51 787.159 668.385 787.159H28.8989C14.7737 787.159 1.93262 774.318 1.93262 760.193V120.706C1.93262 106.581 14.7737 93.74 28.8989 93.74H667.101C682.51 93.74 695.352 106.581 695.352 120.706V760.193Z" fill="#F8FDBE"/>
<path d="M695.352 734.51C695.352 749.92 682.51 761.477 668.385 761.477H28.8989C14.7737 761.477 1.93262 748.636 1.93262 734.51V95.0241C1.93262 80.8989 14.7737 68.0578 28.8989 68.0578H667.101C682.51 68.0578 695.352 80.8989 695.352 95.0241V734.51Z" fill="#77CA7B"/>
<path d="M0.648499 96.3082C0.648499 80.8989 12.2055 68.0578 27.6148 68.0578H669.669C685.079 68.0578 695.352 82.183 695.352 97.5923V739.647C695.352 755.056 682.51 762.761 668.385 762.761" fill="#F8FDBE"/>
<path d="M669.669 68.0578H27.6148C12.2055 68.0578 1.93262 82.183 1.93262 97.5923V260.674H695.352V97.5923C695.352 82.183 685.079 68.0578 669.669 68.0578Z" fill="#FF6262"/>
<path d="M695.352 106.581H1.93262V260.674H695.352V106.581Z" fill="#FF1414"/>
<path d="M167.583 233.708C198.078 233.708 222.799 208.986 222.799 178.491C222.799 147.996 198.078 123.274 167.583 123.274C137.087 123.274 112.366 147.996 112.366 178.491C112.366 208.986 137.087 233.708 167.583 233.708Z" fill="#F2A825"/>
<path d="M129.059 139.968C150.889 118.138 185.56 118.138 207.39 139.968C229.22 161.798 229.22 196.469 207.39 218.299" fill="#DB7D0E"/>
<path d="M194.549 177.207C194.549 190.048 181.708 201.605 168.867 201.605C156.026 201.605 143.185 191.332 143.185 177.207V24.3981C143.185 11.557 156.026 0 168.867 0C181.708 0 194.549 10.2729 194.549 24.3981V177.207Z" fill="#77CA7B"/>
<path d="M168.867 0C181.708 0 194.549 10.2729 194.549 24.3981V177.207C194.549 190.048 182.992 201.605 170.151 201.605" fill="#F8FDBE"/>
<path d="M529.701 233.708C560.197 233.708 584.918 208.986 584.918 178.491C584.918 147.996 560.197 123.274 529.701 123.274C499.206 123.274 474.485 147.996 474.485 178.491C474.485 208.986 499.206 233.708 529.701 233.708Z" fill="#F2A825"/>
<path d="M489.894 139.968C511.724 118.138 546.395 118.138 568.225 139.968C590.055 161.798 590.055 196.469 568.225 218.299" fill="#DB7D0E"/>
<path d="M554.1 177.207C554.1 190.048 541.258 201.605 528.417 201.605C515.576 201.605 502.735 191.332 502.735 177.207V24.3981C502.735 11.557 515.576 0 528.417 0C541.258 0 554.1 10.2729 554.1 24.3981V177.207Z" fill="#77CA7B"/>
<path d="M529.701 0C542.543 0 554.1 10.2729 554.1 24.3981V177.207C554.1 190.048 542.543 201.605 529.701 201.605" fill="#F8FDBE"/>
</svg>
