<svg width="704" height="800" viewBox="0 0 704 800" fill="none" xmlns="http://www.w3.org/2000/svg">
<g filter="url(#filter0_d_1_27)">
<path d="M699.352 773.034C699.352 788.443 686.51 800 672.385 800H32.8989C18.7737 800 5.93262 787.159 5.93262 773.034V133.547C5.93262 119.422 18.7737 106.581 32.8989 106.581H671.101C686.51 106.581 699.352 119.422 699.352 133.547V773.034Z" fill="#B8BDC1"/>
<path d="M699.352 760.193C699.352 775.602 686.51 787.159 672.385 787.159H32.8989C18.7737 787.159 5.93262 774.318 5.93262 760.193V120.706C5.93262 106.581 18.7737 93.74 32.8989 93.74H671.101C686.51 93.74 699.352 106.581 699.352 120.706V760.193Z" fill="#D9DEE2"/>
<path d="M699.352 734.51C699.352 749.92 686.51 761.477 672.385 761.477H32.8989C18.7737 761.477 5.93262 748.636 5.93262 734.51V95.0241C5.93262 80.8989 18.7737 68.0578 32.8989 68.0578H671.101C686.51 68.0578 699.352 80.8989 699.352 95.0241V734.51Z" fill="white"/>
<path d="M4.6485 96.3082C4.6485 80.8989 16.2055 68.0578 31.6148 68.0578H673.669C689.079 68.0578 699.352 82.183 699.352 97.5923V739.647C699.352 755.056 686.51 762.761 672.385 762.761" fill="#D9DEE2"/>
<path d="M673.669 68.0578H31.6148C16.2055 68.0578 5.93262 82.183 5.93262 97.5923V260.674H699.352V97.5923C699.352 82.183 689.079 68.0578 673.669 68.0578Z" fill="#2A7A9E"/>
<path d="M699.352 106.581H5.93262V260.674H699.352V106.581Z" fill="#0C5177"/>
<path d="M171.583 233.708C202.078 233.708 226.799 208.986 226.799 178.491C226.799 147.996 202.078 123.274 171.583 123.274C141.087 123.274 116.366 147.996 116.366 178.491C116.366 208.986 141.087 233.708 171.583 233.708Z" fill="#F2A825"/>
<path d="M133.059 139.968C154.889 118.138 189.56 118.138 211.39 139.968C233.22 161.798 233.22 196.469 211.39 218.299" fill="#DB7D0E"/>
<path d="M198.549 177.207C198.549 190.048 185.708 201.605 172.867 201.605C160.026 201.605 147.185 191.332 147.185 177.207V24.3981C147.185 11.557 160.026 0 172.867 0C185.708 0 198.549 10.2729 198.549 24.3981V177.207Z" fill="white"/>
<path d="M172.867 0C185.708 0 198.549 10.2729 198.549 24.3981V177.207C198.549 190.048 186.992 201.605 174.151 201.605" fill="#D9DEE2"/>
<path d="M533.701 233.708C564.197 233.708 588.918 208.986 588.918 178.491C588.918 147.996 564.197 123.274 533.701 123.274C503.206 123.274 478.485 147.996 478.485 178.491C478.485 208.986 503.206 233.708 533.701 233.708Z" fill="#F2A825"/>
<path d="M493.894 139.968C515.724 118.138 550.395 118.138 572.225 139.968C594.055 161.798 594.055 196.469 572.225 218.299" fill="#DB7D0E"/>
<path d="M558.1 177.207C558.1 190.048 545.258 201.605 532.417 201.605C519.576 201.605 506.735 191.332 506.735 177.207V24.3981C506.735 11.557 519.576 0 532.417 0C545.258 0 558.1 10.2729 558.1 24.3981V177.207Z" fill="white"/>
<path d="M533.701 0C546.543 0 558.1 10.2729 558.1 24.3981V177.207C558.1 190.048 546.543 201.605 533.701 201.605" fill="#D9DEE2"/>
<g filter="url(#filter1_d_1_27)">
<path d="M382.556 512.556C391.148 503.965 391.148 490.035 382.556 481.444L242.549 341.436C233.958 332.845 220.028 332.845 211.436 341.436C202.845 350.028 202.845 363.958 211.436 372.549L335.887 497L211.437 621.451C202.845 630.042 202.845 643.972 211.437 652.563C220.028 661.155 233.958 661.155 242.549 652.563L382.556 512.556ZM6 519L367 519L367 475L6 475L6 519Z" fill="black"/>
</g>
</g>
<defs>
<filter id="filter0_d_1_27" x="0.648499" y="0" width="702.703" height="808" filterUnits="userSpaceOnUse" color-interpolation-filters="sRGB">
<feFlood flood-opacity="0" result="BackgroundImageFix"/>
<feColorMatrix in="SourceAlpha" type="matrix" values="0 0 0 0 0 0 0 0 0 0 0 0 0 0 0 0 0 0 127 0" result="hardAlpha"/>
<feOffset dy="4"/>
<feGaussianBlur stdDeviation="2"/>
<feComposite in2="hardAlpha" operator="out"/>
<feColorMatrix type="matrix" values="0 0 0 0 0 0 0 0 0 0 0 0 0 0 0 0 0 0 0.25 0"/>
<feBlend mode="normal" in2="BackgroundImageFix" result="effect1_dropShadow_1_27"/>
<feBlend mode="normal" in="SourceGraphic" in2="effect1_dropShadow_1_27" result="shape"/>
</filter>
<filter id="filter1_d_1_27" x="2" y="334.993" width="391" height="332.014" filterUnits="userSpaceOnUse" color-interpolation-filters="sRGB">
<feFlood flood-opacity="0" result="BackgroundImageFix"/>
<feColorMatrix in="SourceAlpha" type="matrix" values="0 0 0 0 0 0 0 0 0 0 0 0 0 0 0 0 0 0 127 0" result="hardAlpha"/>
<feOffset dy="4"/>
<feGaussianBlur stdDeviation="2"/>
<feComposite in2="hardAlpha" operator="out"/>
<feColorMatrix type="matrix" values="0 0 0 0 0 0 0 0 0 0 0 0 0 0 0 0 0 0 0.25 0"/>
<feBlend mode="normal" in2="BackgroundImageFix" result="effect1_dropShadow_1_27"/>
<feBlend mode="normal" in="SourceGraphic" in2="effect1_dropShadow_1_27" result="shape"/>
</filter>
</defs>
</svg>
